<?xml version="1.0" encoding="UTF-8" standalone="no"?>
<svg
   xmlns:dc="http://purl.org/dc/elements/1.1/"
   xmlns:cc="http://creativecommons.org/ns#"
   xmlns:rdf="http://www.w3.org/1999/02/22-rdf-syntax-ns#"
   xmlns:svg="http://www.w3.org/2000/svg"
   xmlns="http://www.w3.org/2000/svg"
   xmlns:sodipodi="http://sodipodi.sourceforge.net/DTD/sodipodi-0.dtd"
   xmlns:inkscape="http://www.inkscape.org/namespaces/inkscape"
   version="1.1"
   x="0px"
   y="0px"
   viewBox="0 0 100 125"
   enable-background="new 0 0 100 100"
   xml:space="preserve"
   id="svg2"
   inkscape:version="0.91 r13725"
   sodipodi:docname="exams.svg"><metadata
     id="metadata18"><rdf:RDF><cc:Work
         rdf:about=""><dc:format>image/svg+xml</dc:format><dc:type
           rdf:resource="http://purl.org/dc/dcmitype/StillImage" /><dc:title></dc:title></cc:Work></rdf:RDF></metadata><defs
     id="defs16" /><sodipodi:namedview
     pagecolor="#ffffff"
     bordercolor="#666666"
     borderopacity="1"
     objecttolerance="10"
     gridtolerance="10"
     guidetolerance="10"
     inkscape:pageopacity="0"
     inkscape:pageshadow="2"
     inkscape:window-width="640"
     inkscape:window-height="480"
     id="namedview14"
     showgrid="false"
     inkscape:zoom="1.888"
     inkscape:cx="50"
     inkscape:cy="62.5"
     inkscape:window-x="0"
     inkscape:window-y="0"
     inkscape:window-maximized="0"
     inkscape:current-layer="svg2" /><g
     id="g4"
     transform="translate(0,12.182203)"><path
       d="m 81.862,43.04 0,47.765 -66.667,0 0,-75.863 15.518,0 c 0,10e-4 0,0.002 0,0.003 0,3.491 2.831,6.322 6.321,6.322 l 9.34,0 c -0.005,-0.194 -0.029,-0.383 -0.029,-0.578 l 0,-14.942 -31.15,0 C 10.117,5.747 6,9.864 6,14.942 L 6,90.804 C 6,95.883 10.117,100 15.195,100 l 66.667,0 c 5.078,0 9.195,-4.117 9.195,-9.195 l 0,-54.394 c -2.48,2.881 -5.62,5.172 -9.195,6.629 z"
       id="path6"
       inkscape:connector-curvature="0" /><path
       d="M 90.022,0 C 89.825,0 89.636,0.026 89.448,0.059 89.259,0.026 89.07,0 88.873,0 l -6.896,0 c -1.905,0 -3.448,1.543 -3.448,3.448 0,1.905 1.543,3.448 3.448,3.448 l 4.598,0 0,13.793 c 0,7.606 -6.188,13.793 -13.793,13.793 l -2.299,0 c -7.606,0 -13.793,-6.188 -13.793,-13.793 l 0,-13.793 4.598,0 c 1.904,0 3.448,-1.543 3.448,-3.448 C 64.736,1.543 63.191,0 61.287,0 L 54.391,0 C 54.193,0 54.004,0.026 53.816,0.059 53.627,0.026 53.438,0 53.241,0 51.336,0 49.793,1.543 49.793,3.448 l 0,17.241 c 0,11.02 8.668,20.03 19.54,20.631 l 0,20.749 c 0,7.605 -6.188,13.793 -13.793,13.793 -7.478,0 -13.793,-5.001 -13.793,-10.92 l 0,-1.028 c 5.939,-1.537 10.345,-6.926 10.345,-13.339 0,-7.606 -6.188,-13.793 -13.793,-13.793 -7.606,0 -13.794,6.187 -13.794,13.793 0,6.413 4.405,11.802 10.346,13.339 l 0,1.028 c 0,9.824 9.281,17.816 20.689,17.816 11.407,0 20.689,-9.282 20.689,-20.689 l 0,-21.002 C 85.998,39.418 93.47,30.92 93.47,20.689 l 0,-17.241 C 93.471,1.543 91.928,0 90.022,0 Z M 31.401,50.575 c 0,-3.804 3.094,-6.897 6.897,-6.897 3.803,0 6.896,3.093 6.896,6.897 0,3.803 -3.094,6.896 -6.896,6.896 -3.803,0.001 -6.897,-3.093 -6.897,-6.896 z"
       id="path8"
       inkscape:connector-curvature="0" /></g></svg>