<?xml version="1.0" encoding="UTF-8" standalone="no"?>
<svg
   xmlns:dc="http://purl.org/dc/elements/1.1/"
   xmlns:cc="http://creativecommons.org/ns#"
   xmlns:rdf="http://www.w3.org/1999/02/22-rdf-syntax-ns#"
   xmlns:svg="http://www.w3.org/2000/svg"
   xmlns="http://www.w3.org/2000/svg"
   xmlns:sodipodi="http://sodipodi.sourceforge.net/DTD/sodipodi-0.dtd"
   xmlns:inkscape="http://www.inkscape.org/namespaces/inkscape"
   version="1.1"
   x="0px"
   y="0px"
   viewBox="0 0 100 125"
   enable-background="new 0 0 100 100"
   xml:space="preserve"
   id="svg2"
   inkscape:version="0.91 r13725"
   sodipodi:docname="head_perim.svg"><metadata
     id="metadata18"><rdf:RDF><cc:Work
         rdf:about=""><dc:format>image/svg+xml</dc:format><dc:type
           rdf:resource="http://purl.org/dc/dcmitype/StillImage" /><dc:title /></cc:Work></rdf:RDF></metadata><defs
     id="defs16" /><sodipodi:namedview
     pagecolor="#ffffff"
     bordercolor="#666666"
     borderopacity="1"
     objecttolerance="10"
     gridtolerance="10"
     guidetolerance="10"
     inkscape:pageopacity="0"
     inkscape:pageshadow="2"
     inkscape:window-width="1920"
     inkscape:window-height="1018"
     id="namedview14"
     showgrid="false"
     inkscape:zoom="1.888"
     inkscape:cx="-29.978814"
     inkscape:cy="62.5"
     inkscape:window-x="-8"
     inkscape:window-y="-8"
     inkscape:window-maximized="1"
     inkscape:current-layer="svg2" /><g
     id="g4"
     transform="translate(1.059322,13.771186)"><path
       d="M 91.971,21.949 78.051,8.029 75.502,5.479 72.951,8.029 8.03,72.951 5.48,75.5 8.03,78.051 21.949,91.97 24.499,94.521 27.049,91.97 91.97,27.05 94.519,24.5 91.971,21.949 Z M 24.5,89.421 10.58,75.5 l 4.037,-4.037 5.844,5.846 1.593,-1.595 -5.844,-5.844 2.059,-2.059 3.135,3.134 1.594,-1.593 -3.135,-3.135 2.058,-2.06 5.844,5.845 1.594,-1.594 -5.844,-5.844 2.059,-2.059 3.135,3.135 1.593,-1.594 -3.135,-3.136 2.06,-2.059 5.844,5.845 1.594,-1.594 -5.845,-5.842 2.059,-2.059 3.135,3.135 1.594,-1.594 -3.135,-3.135 2.059,-2.059 5.844,5.844 1.594,-1.594 -5.844,-5.844 2.058,-2.058 3.135,3.135 1.593,-1.594 -3.134,-3.135 2.06,-2.059 5.844,5.844 1.594,-1.594 -5.846,-5.843 2.059,-2.059 3.135,3.135 1.594,-1.593 -3.135,-3.135 2.059,-2.059 5.844,5.844 1.594,-1.594 -5.844,-5.844 2.059,-2.059 3.135,3.135 1.594,-1.594 -3.135,-3.135 2.059,-2.059 5.844,5.844 1.594,-1.594 -5.844,-5.844 15.461,-15.46 13.917,13.92 -64.92,64.922 z"
       id="path6"
       inkscape:connector-curvature="0" /><path
       d="m 71.916,27.607 c 1.998,2 5.252,1.999 7.25,0 2,-2 2,-5.252 0,-7.251 -1.998,-1.999 -5.252,-2 -7.25,0 -2,1.998 -2,5.252 0,7.251 z m 5.338,-5.339 c 0.947,0.947 0.947,2.481 0,3.427 -0.945,0.946 -2.479,0.947 -3.426,0 -0.947,-0.946 -0.947,-2.48 0,-3.427 0.945,-0.946 2.481,-0.946 3.426,0 z"
       id="path8"
       inkscape:connector-curvature="0" /></g></svg>