<?xml version="1.0" encoding="UTF-8" standalone="no"?>
<svg
   xmlns:dc="http://purl.org/dc/elements/1.1/"
   xmlns:cc="http://creativecommons.org/ns#"
   xmlns:rdf="http://www.w3.org/1999/02/22-rdf-syntax-ns#"
   xmlns:svg="http://www.w3.org/2000/svg"
   xmlns="http://www.w3.org/2000/svg"
   xmlns:sodipodi="http://sodipodi.sourceforge.net/DTD/sodipodi-0.dtd"
   xmlns:inkscape="http://www.inkscape.org/namespaces/inkscape"
   version="1.1"
   x="0px"
   y="0px"
   viewBox="0 0 100 125"
   enable-background="new 0 0 100 100"
   xml:space="preserve"
   id="svg2"
   inkscape:version="0.91 r13725"
   sodipodi:docname="height.svg"><metadata
     id="metadata14"><rdf:RDF><cc:Work
         rdf:about=""><dc:format>image/svg+xml</dc:format><dc:type
           rdf:resource="http://purl.org/dc/dcmitype/StillImage" /><dc:title></dc:title></cc:Work></rdf:RDF></metadata><defs
     id="defs12" /><sodipodi:namedview
     pagecolor="#ffffff"
     bordercolor="#666666"
     borderopacity="1"
     objecttolerance="10"
     gridtolerance="10"
     guidetolerance="10"
     inkscape:pageopacity="0"
     inkscape:pageshadow="2"
     inkscape:window-width="640"
     inkscape:window-height="480"
     id="namedview10"
     showgrid="false"
     inkscape:zoom="1.888"
     inkscape:cx="50"
     inkscape:cy="62.5"
     inkscape:window-x="0"
     inkscape:window-y="0"
     inkscape:window-maximized="0"
     inkscape:current-layer="svg2" /><path
     d="m 53.875322,22.011542 c 0,0 -2.73,0.222 -4.649,-4.208 0,0 1.181,-0.443 4.133,1.477 0,0 2.068,-1.034 3.545,-0.147 0,0 2.067,-1.772 4.874,-1.477 0,0 0.59,2.215 -3.544,3.692 0,0 3.249,3.84 3.839,5.021 0,0 1.552,2.511 -1.884,1.182 l -2.99,-0.774 c 0,0 -0.845,-0.379 -0.775,2.214 0,0 -0.629,5.632 -0.562,21.824 0,0 0.703,14.261 1.232,18.6 0,0 1.144,12.665 1.91,36.294998 l -1.625,0 c 0,0 -5.934,-53.464998 -5.683,0 l -1.551,0 c 0,0 -1.948,-46.670998 -14.395,0 l -2.583,0 c 0,0 2.595,-20.624998 10.315,-27.308998 5.305,-4.592 9.733,-7.842 9.751,-27.487 0,-10e-4 -0.328,-20.854 0.642,-28.903 z"
     id="path4"
     inkscape:connector-curvature="0" /></svg>