<?xml version="1.0" encoding="UTF-8" standalone="no"?>
<svg
   xmlns:dc="http://purl.org/dc/elements/1.1/"
   xmlns:cc="http://creativecommons.org/ns#"
   xmlns:rdf="http://www.w3.org/1999/02/22-rdf-syntax-ns#"
   xmlns:svg="http://www.w3.org/2000/svg"
   xmlns="http://www.w3.org/2000/svg"
   xmlns:sodipodi="http://sodipodi.sourceforge.net/DTD/sodipodi-0.dtd"
   xmlns:inkscape="http://www.inkscape.org/namespaces/inkscape"
   version="1.1"
   x="0px"
   y="0px"
   viewBox="0 0 100 125"
   enable-background="new 0 0 100 100"
   xml:space="preserve"
   id="svg2"
   inkscape:version="0.91 r13725"
   sodipodi:docname="medical_appointment.svg"><metadata
     id="metadata28"><rdf:RDF><cc:Work
         rdf:about=""><dc:format>image/svg+xml</dc:format><dc:type
           rdf:resource="http://purl.org/dc/dcmitype/StillImage" /><dc:title></dc:title></cc:Work></rdf:RDF></metadata><defs
     id="defs26" /><sodipodi:namedview
     pagecolor="#ffffff"
     bordercolor="#666666"
     borderopacity="1"
     objecttolerance="10"
     gridtolerance="10"
     guidetolerance="10"
     inkscape:pageopacity="0"
     inkscape:pageshadow="2"
     inkscape:window-width="640"
     inkscape:window-height="480"
     id="namedview24"
     showgrid="false"
     inkscape:zoom="1.888"
     inkscape:cx="50"
     inkscape:cy="62.5"
     inkscape:window-x="0"
     inkscape:window-y="0"
     inkscape:window-maximized="0"
     inkscape:current-layer="svg2" /><g
     id="g4"
     transform="translate(1.5889831,12.711864)"><path
       d="m 26.188,67.086 c 0,-0.76 -0.615,-1.377 -1.375,-1.377 -0.76,0 -1.376,0.617 -1.376,1.377 0,0.76 0.617,1.375 1.376,1.375 0.759,0 1.375,-0.615 1.375,-1.375 l 0,0 z"
       id="path6"
       inkscape:connector-curvature="0" /></g><g
     id="g8"
     transform="translate(1.5889831,12.711864)"><path
       d="m 65.992,23.87 c 0,-9.149 -7.414,-16.565 -16.564,-16.565 -9.149,0 -16.566,7.416 -16.566,16.565 0,9.147 7.417,16.565 16.566,16.565 9.15,10e-4 16.564,-7.417 16.564,-16.565 l 0,0 z"
       id="path10"
       inkscape:connector-curvature="0" /></g><g
     id="g12"
     transform="translate(1.5889831,12.711864)"><path
       d="m 60.953,45.086 c -7.188,3.904 -15.863,3.904 -23.049,0 -0.312,0.705 -0.405,1.486 -0.268,2.245 l 2.905,16.157 c 0.331,1.844 1.936,3.185 3.808,3.185 l 5.079,0 5.078,0 c 1.873,0 3.477,-1.341 3.809,-3.185 l 2.906,-16.157 c 0.134,-0.759 0.041,-1.54 -0.268,-2.245 z"
       id="path14"
       inkscape:connector-curvature="0" /></g><g
     id="g16"
     transform="translate(1.5889831,12.711864)"><path
       d="m 36.485,44.252 c -0.707,-0.449 -1.391,-0.936 -2.047,-1.455 -15.217,7.214 -23.135,24.246 -18.845,40.531 21.539,9.585 46.131,9.585 67.668,0 4.291,-16.285 -3.627,-33.317 -18.844,-40.531 -0.658,0.52 -1.342,1.006 -2.049,1.455 0.506,1.047 0.668,2.225 0.461,3.369 l -2.904,16.157 c -0.472,2.624 -2.754,4.532 -5.42,4.532 l -4.258,0 0,5.83 c 0,7.25 -5.878,13.126 -13.128,13.126 -7.249,0 -13.126,-5.876 -13.126,-13.126 l 0,-2.359 c -1.981,-0.344 -3.533,-1.896 -3.878,-3.877 -0.453,-2.595 1.285,-5.064 3.878,-5.516 2.595,-0.453 5.064,1.283 5.517,3.878 0.451,2.595 -1.285,5.063 -3.878,5.515 l 0,2.359 c 0,6.345 5.143,11.49 11.488,11.49 6.345,0 11.49,-5.146 11.49,-11.49 l 0,-5.83 -4.26,0 c -2.665,0 -4.948,-1.908 -5.419,-4.532 L 36.026,47.621 c -0.207,-1.144 -0.045,-2.322 0.459,-3.369 z"
       id="path18"
       inkscape:connector-curvature="0" /></g></svg>