<?xml version="1.0" encoding="UTF-8" standalone="no"?>
<svg
   xmlns:dc="http://purl.org/dc/elements/1.1/"
   xmlns:cc="http://creativecommons.org/ns#"
   xmlns:rdf="http://www.w3.org/1999/02/22-rdf-syntax-ns#"
   xmlns:svg="http://www.w3.org/2000/svg"
   xmlns="http://www.w3.org/2000/svg"
   xmlns:sodipodi="http://sodipodi.sourceforge.net/DTD/sodipodi-0.dtd"
   xmlns:inkscape="http://www.inkscape.org/namespaces/inkscape"
   version="1.1"
   x="0px"
   y="0px"
   viewBox="0 0 90 112.5"
   enable-background="new 0 0 90 90"
   xml:space="preserve"
   id="svg2"
   inkscape:version="0.91 r13725"
   sodipodi:docname="weight.svg"><metadata
     id="metadata18"><rdf:RDF><cc:Work
         rdf:about=""><dc:format>image/svg+xml</dc:format><dc:type
           rdf:resource="http://purl.org/dc/dcmitype/StillImage" /><dc:title /></cc:Work></rdf:RDF></metadata><defs
     id="defs16" /><sodipodi:namedview
     pagecolor="#ffffff"
     bordercolor="#666666"
     borderopacity="1"
     objecttolerance="10"
     gridtolerance="10"
     guidetolerance="10"
     inkscape:pageopacity="0"
     inkscape:pageshadow="2"
     inkscape:window-width="1920"
     inkscape:window-height="1018"
     id="namedview14"
     showgrid="false"
     inkscape:zoom="2.0977778"
     inkscape:cx="45"
     inkscape:cy="56.250001"
     inkscape:window-x="-8"
     inkscape:window-y="-8"
     inkscape:window-maximized="1"
     inkscape:current-layer="svg2" /><g
     id="g4"
     transform="translate(0.95338983,14.777542)"><path
       d="m 86.7,43.5 c 0,8.9 0.1,17.8 0,26.6 -0.1,6.3 -4.3,12.1 -10.6,14.1 -1.9,0.6 -3.8,0.9 -5.8,0.9 -16.9,0 -33.7,0 -50.6,0 -6.2,0 -11,-2.5 -14.2,-7.9 C 4.2,75 3.4,72.6 3.4,70 3.4,59.3 3.4,48.6 3.4,37.9 3.4,30.9 3.2,23.8 3.5,16.8 3.7,10.4 6.9,5.7 12.9,3 c 1.9,-0.9 3.9,-1.4 5.9,-1.4 17.6,0 35.2,-0.1 52.9,0 4.4,0 8.2,1.8 11.1,5.1 2.8,3.1 4.1,6.8 4.1,10.9 -0.2,8.8 -0.2,17.3 -0.2,25.9 0,0 0,0 0,0 z M 45,40.3 c 5,0 9.9,0 14.9,0 0.8,0 1.3,-0.2 1.9,-0.9 3.6,-4.6 7.3,-9.1 10.9,-13.6 1.3,-1.6 1.3,-1.6 -0.2,-3.2 -3.7,-3.7 -7.9,-6.5 -12.8,-8.4 -4.1,-1.6 -8.4,-2.7 -12.8,-2.7 -3,0 -6.1,0 -9.1,0.6 -2.9,0.5 -5.8,1.5 -8.5,2.7 -4.8,1.9 -8.9,4.9 -12.4,8.7 -0.6,0.7 -0.5,1.1 0,1.7 3.9,4.8 7.7,9.6 11.5,14.4 0.4,0.6 0.9,0.7 1.6,0.7 5,-0.1 10,0 15,0 z"
       id="path6"
       inkscape:connector-curvature="0" /><path
       d="m 57.5,18.9 c -0.2,1 -0.4,2.1 -0.7,3.1 -0.4,1.8 -0.8,3.6 -1.2,5.4 -0.5,2.3 -1.1,4.5 -1.6,6.8 -0.2,0.7 -0.4,1.5 -0.6,2.2 -0.1,0.3 -0.4,0.6 -0.6,0.6 -2.3,0 -4.7,0 -7,0 -0.1,0 -0.2,-0.1 -0.5,-0.2 4,-6 7.9,-12 11.9,-18 0.1,0 0.2,0 0.3,0.1 z"
       id="path8"
       inkscape:connector-curvature="0" /></g></svg>